<?xml version="1.0" encoding="UTF-8" standalone="no"?>
<svg xmlns:dc="http://purl.org/dc/elements/1.1/" xmlns:cc="http://creativecommons.org/ns#" xmlns:rdf="http://www.w3.org/1999/02/22-rdf-syntax-ns#" xmlns:svg="http://www.w3.org/2000/svg" xmlns="http://www.w3.org/2000/svg" xmlns:sodipodi="http://sodipodi.sourceforge.net/DTD/sodipodi-0.dtd" xmlns:inkscape="http://www.inkscape.org/namespaces/inkscape" version="1.1" id="Layer_1" width="457.23093" height="175.75" viewBox="-3.5 -3.5 457.23093 175.75" enable-background="new -3.5 -3.5 695 185" xml:space="preserve" inkscape:version="0.48.5 r10040" sodipodi:docname="AngularJS_logo.svg"><metadata id="metadata4304"><rdf:RDF><cc:Work rdf:about=""><dc:format>image/svg+xml</dc:format><dc:type rdf:resource="http://purl.org/dc/dcmitype/StillImage" /><dc:title></dc:title></cc:Work></rdf:RDF></metadata><defs id="defs4302"><clipPath clipPathUnits="userSpaceOnUse" id="clipPath9883"><path style="fill:#b7e5f2;fill-opacity:1;stroke:none" d="M 373.25137,138.36539 C 368.2006,114.6268 365.69404,107.50495 330.31988,94.423753 296.87643,82.056528 89.641815,83.914477 73.741136,358.07357 3.5355339,385.85276 18.687822,424.74364 18.687822,424.74364 c 0,0 29.7995,-20.70813 61.114229,-17.1726 6.491894,-11.60483 1.265513,-12.10676 14.647212,-3.03046 52.473577,7.45155 52.527937,15.15229 52.527937,15.15229 5.37562,-18.00138 -5.67794,-36.89082 -50.002556,-57.57869 l 27.779196,-61.11423 c 5.48839,-8.11481 7.40401,-13.55005 17.67767,-25.25382 24.89603,-24.97604 59.4271,-38.39004 90.40865,-56.06346 l 77.78175,-42.93149 c 0,0 15.37178,-7.9105 23.73858,-9.59644 12.21418,-2.4612 37.37564,-0.50508 37.37564,-0.50508 8.25555,-0.70807 11.00752,-4.206 13.13199,-12.6269" id="path9885" inkscape:connector-curvature="0" sodipodi:nodetypes="csccccccccccscc" /></clipPath><clipPath clipPathUnits="userSpaceOnUse" id="clipPath9892"><path inkscape:connector-curvature="0" id="path9894" d="m 10.101525,363.62941 64.144687,-5.55584 14.041555,-6.00893 8.975141,9.56775 45.673682,9.06808 c 0,0 35.35533,54.54824 34.34518,56.56855 -1.01015,2.0203 -136.370592,2.0203 -138.390897,2.52538 -2.020305,0.50507 -41.4162544,-7.57615 -41.4162544,-7.57615 0,0 12.6269064,-59.599 12.6269064,-58.58884 z" style="fill:none;stroke:#000000;stroke-width:1px;stroke-linecap:butt;stroke-linejoin:miter;stroke-opacity:1" sodipodi:nodetypes="cccccsscc" /></clipPath></defs><sodipodi:namedview pagecolor="#ffffff" bordercolor="#666666" borderopacity="1" objecttolerance="10" gridtolerance="10" guidetolerance="10" inkscape:pageopacity="0" inkscape:pageshadow="2" inkscape:window-width="640" inkscape:window-height="713" id="namedview4300" showgrid="false" fit-margin-top="0" fit-margin-left="0" fit-margin-right="0" fit-margin-bottom="0" inkscape:zoom="0.5352518" inkscape:cx="343.446" inkscape:cy="87.875" inkscape:window-x="2573" inkscape:window-y="165" inkscape:window-maximized="0" inkscape:current-layer="Layer_1" /><filter id="googleDropShadow" color-interpolation-filters="sRGB"><feOffset result="offOut" in="SourceGraphic" dx="0.3" dy="0.5" id="feOffset4242" /><feGaussianBlur stdDeviation="0.25" result="blurOut" in="offOut" id="feGaussianBlur4244" /><feColorMatrix type="matrix" result="blurTransOut" in="blurOut" values="1 0 0 0 0 0 1 0 0 0 0 0 1 0 0 0 0 0 .8 0" id="feColorMatrix4246" /><feBlend in="SourceGraphic" mode="normal" in2="blurTransOut" id="feBlend4248" /></filter><g id="g4286" inkscape:export-filename="/home/ntrrgc/Dropbox/snorky-web/snorkyweb/static/img/angular.png" inkscape:export-xdpi="212.58" inkscape:export-ydpi="212.58" transform="translate(-4.054,-4.375)"><polygon points="153.4,137.792 166.462,29.46 83.243,0.875 0.554,29.975 13.621,138.311 83.331,176.625 " id="polygon4288" style="fill:#b3b3b3" /><polygon points="158.214,35.721 83.05,10.089 83.05,167.471 146.041,132.609 " id="polygon4290" style="fill:#a6120d" /><polygon points="9.833,36.183 21.03,133.072 83.049,167.471 83.049,10.086 " id="polygon4292" style="fill:#dd1b16" /><path d="m 103.74,93.871 -20.69,9.675 H 61.243 L 50.992,129.186 31.925,129.539 83.05,15.804 103.74,93.871 z M 101.74,89 83.187,52.271 67.969,88.368 h 15.08 L 101.74,89 z" id="path4294" inkscape:connector-curvature="0" style="fill:#f2f2f2" /><polygon points="83.049,103.523 107.062,103.546 118.285,129.543 136.529,129.881 83.049,15.804 83.186,52.271 100.454,88.396 83.088,88.396 " id="polygon4296" style="fill:#b3b3b3" /></g><g style="display:inline" id="g9927" transform="matrix(0.49510831,0,0,0.49510831,262.42931,-43.204829)" inkscape:export-filename="/home/ntrrgc/Dropbox/snorky-web/snorkyweb/static/img/angular.png" inkscape:export-xdpi="212.58" inkscape:export-ydpi="212.58"><path sodipodi:nodetypes="cccsc" inkscape:connector-curvature="0" id="path9324" d="m 289.4087,193.4187 c -7.07106,12.12183 -7.57614,12.12183 -7.57614,12.12183 18.00144,13.97477 12.80184,29.73424 14.64721,44.95179 0,0 45.54043,-25.06761 20.70813,-70.2056 -16.62456,-30.21867 -27.0114,14.66759 -27.7792,13.13198 z" style="fill:#71cbe5;fill-opacity:1;stroke:none" /><path sodipodi:nodetypes="cccsc" inkscape:connector-curvature="0" id="path9322" d="m 140.91628,127.75879 c 22.96891,18.84016 0.56936,36.33871 0.50508,36.36549 l 52.52793,-39.39595 c 0,0 -26.26397,-14.14214 -39.39595,-8.5863 -13.13198,5.55584 -13.63706,11.61676 -13.63706,11.61676 z" style="fill:#71cbe5;fill-opacity:1;stroke:none" /><path sodipodi:nodetypes="csccccccccccccc" inkscape:connector-curvature="0" id="path9312" d="M 373.25137,138.36539 C 368.2006,114.6268 365.69404,107.50495 330.31988,94.423753 296.87643,82.056528 89.641815,83.914477 73.741136,358.07357 3.5355339,385.85276 18.687822,424.74364 18.687822,424.74364 c 0,0 29.7995,-20.70813 61.114229,-17.1726 6.491894,-11.60483 1.265513,-12.10676 14.647212,-3.03046 52.473577,7.45155 52.527937,15.15229 52.527937,15.15229 5.37562,-18.00138 -5.67794,-36.89082 -50.002556,-57.57869 l 27.779196,-61.11423 c 5.48839,-8.11481 7.40401,-13.55005 17.67767,-25.25382 24.89603,-24.97604 58.41695,-42.43065 89.3985,-60.10407 28.62099,-14.64721 -6.60068,-53.82134 80.8122,-44.95179 l 14.64721,-6.06091 40.91118,-0.50508 c 8.25555,-0.70807 14.54305,-1.68062 16.66752,-10.10152" style="fill:#b7e5f2;fill-opacity:1;stroke:none" /><path sodipodi:nodetypes="ccscscc" clip-path="url(#clipPath9883)" inkscape:connector-curvature="0" id="path9337" d="M 84.852814,359.08372 C 131.88053,247.98432 185.60847,189.58133 316.92604,134.75524 c 4.15631,-0.51911 6.7836,2.61568 10.85445,2.75547 30.55484,1.04924 58.58668,15.04035 56.58255,13.48159 0,0 -0.6126,18.66868 -1.01015,21.2132 -8.93791,57.20771 -229.30463,235.87061 -229.30463,235.87061 14.69231,-36.15226 -5.43322,-31.51634 -69.195446,-48.99239 z" style="fill:#cbedf6;fill-opacity:1;stroke:none" /><path inkscape:connector-curvature="0" id="path9314" d="m 316.17775,133.31463 c 0,0 9.59645,6.06091 22.72843,0.50507 13.13198,-5.55584 34.34519,6.56599 34.34519,6.56599 l 13.13198,13.63706 c 0,0 -14.64721,-5.55584 -23.23351,-1.51523 -8.5863,4.04061 -46.97209,-19.19289 -46.97209,-19.19289 z" style="fill:#71cbe5;fill-opacity:1;stroke:none" /><path sodipodi:nodetypes="ccc" inkscape:connector-curvature="0" id="path9316" d="m 302.03561,123.71818 c 4.284,1.76929 6.35041,5.76013 0,8.08122 -7.37289,-1.17851 -4.11258,-6.90271 0,-8.08122 z" style="fill:#71cbe5;fill-opacity:1;stroke:none" /><path sodipodi:nodetypes="cccc" inkscape:connector-curvature="0" id="path9318" d="m 227.7894,178.77149 c -37.37565,33.33503 -45.45687,51.0127 -45.45687,51.0127 0,0 51.51778,-13.13198 85.35789,-62.62945 -3.5967,-8.32593 -40.2628,10.16961 -39.90102,11.61675 z" style="fill:#6ecce5;fill-opacity:1;stroke:none" /><path clip-path="url(#clipPath9892)" style="fill:#71cbe5;fill-opacity:1;stroke:none" d="M 373.25137,138.36539 C 368.2006,114.6268 365.69404,107.50495 330.31988,94.423753 296.87643,82.056528 89.641815,83.914477 73.741136,358.07357 3.5355339,385.85276 18.687822,424.74364 18.687822,424.74364 c 0,0 29.7995,-20.70813 61.114229,-17.1726 6.491894,-11.60483 1.265513,-12.10676 14.647212,-3.03046 52.473577,7.45155 52.527937,15.15229 52.527937,15.15229 5.37562,-18.00138 -5.67794,-36.89082 -50.002556,-57.57869 l 27.779196,-61.11423 c 5.48839,-8.11481 7.40401,-13.55005 17.67767,-25.25382 24.89603,-24.97604 59.4271,-38.39004 90.40865,-56.06346 l 85.86297,-43.94164 15.65736,-8.58629 37.37564,-0.50508 c 8.25555,-0.70807 11.00752,-4.206 13.13199,-12.6269" id="path9362" inkscape:connector-curvature="0" sodipodi:nodetypes="csccccccccccccc" /></g><flowRoot xml:space="preserve" id="flowRoot4384" style="font-size:20px;font-style:normal;font-variant:normal;font-weight:normal;font-stretch:normal;line-height:125%;letter-spacing:0px;word-spacing:0px;fill:#000000;fill-opacity:1;stroke:none;font-family:Open Sans;-inkscape-font-specification:Open Sans" transform="translate(-7.554,-8.125)"><flowRegion id="flowRegion4386"><rect id="rect4388" width="199.90591" height="168.14516" x="186.82796" y="46.747311" /></flowRegion><flowPara id="flowPara4390"></flowPara></flowRoot><text xml:space="preserve" style="font-size:166.56954956px;font-style:normal;font-variant:normal;font-weight:normal;font-stretch:normal;line-height:125%;letter-spacing:0px;word-spacing:0px;fill:#2fb3d9;fill-opacity:1;stroke:none;font-family:Open Sans;-inkscape-font-specification:Open Sans" x="173.37067" y="143.1786" id="text4392" sodipodi:linespacing="125%" inkscape:export-filename="/home/ntrrgc/Dropbox/snorky-web/snorkyweb/static/img/angular.png" inkscape:export-xdpi="212.58" inkscape:export-ydpi="212.58"><tspan sodipodi:role="line" id="tspan4394" x="173.37067" y="143.1786">+</tspan></text>
</svg>